<svg xmlns="http://www.w3.org/2000/svg" id="SvgjsSvg1080" width="4096" height="1591.629497271454" version="1.1" xmlns:xlink="http://www.w3.org/1999/xlink" xmlns:svgjs="http://svgjs.com/svgjs"><defs id="SvgjsDefs1081"></defs><g id="SvgjsG1082" transform="translate(328, 328.00000000000006) scale(34.4)" opacity="1"><defs id="SvgjsDefs1032"><linearGradient id="SvgjsLinearGradientDsV71VSOw" gradientUnits="userSpaceOnUse" x1="4.2632564145606005e-14" y1="99.99999999999997" x2="99.99999999999999" y2="-3.5527136788005e-15"><stop id="SvgjsStop1035" stop-color="#707070" offset="0.05"></stop><stop id="SvgjsStop1036" stop-color="#303030" offset="1"></stop></linearGradient></defs><g id="SvgjsG1033" transform="scale(0.21645021645021645)" opacity="1"><g id="SvgjsG1037" class="Q2Y5G6nbZ" transform="translate(0, 0) scale(1.2565721736610806)" light-content="false" non-strokable="false" fill="url(#SvgjsLinearGradientDsV71VSOw)"><rect width="100" height="100" rx="10"></rect></g><g id="SvgjsG1038" class="hyVob9XS3f" transform="translate(25.42118794445015, 25.522575345543302) scale(0.747151522496138)" light-content="true" non-strokable="false" fill="#ffffff"><path d="M95.793 66.793V16.43c.02-.687-.719-1.23-1.375-.988L54.125 28.868a1.042 1.042 0 0 0-.707.988v45.957c-4.324-4.637-13.125-4.144-17.438.27-6.145 6.144-.625 14.438 7.863 14.28 6.293.145 12.355-4.8 11.656-10.144V41.793l38.207-12.738v33.324c-5.894-6.582-20.855-2.645-19.988 6.988 1.95 11.574 22.832 9.05 22.074-2.582zM33.762 24.469c13.613 3.363 7.988 15.02 4.625 19.613a1.041 1.041 0 0 0 1.52 1.406c.386-.344 9.332-8.394 9.261-15.613-.125-11.188-11.949-8.832-12.457-19.395-.105-1.199-1.762-1.355-2.062-.176L31.96 22.972s-6.625 31.188-6.625 31.2c-3.262-5.426-11.98-6.782-17.113-3.364-4.707 2.918-5.25 8.988-1.105 12.676 5.699 5.613 18.387 3.676 19.344-4.574l7.324-34.438z"></path></g><g id="SvgjsG1039" class="text" transform="translate(234.97815038392815, 94.80537499396338) scale(1)" light-content="false" fill="#303030"><path d="M-48.16 0L-37.37 0L-37.37 -63.96L-54.29 -63.96L-61.17 -16.83L-61.82 -16.83L-68.7 -63.96L-86.08 -63.96L-86.08 0L-75.49 0L-75.49 -49.46L-74.74 -49.46L-67.49 0L-56.24 0L-48.81 -49.46L-48.16 -49.46Z M2.7 -63.96L-8.46 -63.96L-8.46 -23.8C-8.46 -18.96 -8.55 -15.65 -8.74 -13.85C-8.92 -12.05 -9.34 -10.86 -9.99 -10.27C-10.64 -9.68 -11.81 -9.39 -13.48 -9.39C-15.15 -9.39 -16.32 -9.68 -16.97 -10.27C-17.62 -10.86 -18.03 -12.07 -18.22 -13.9C-18.41 -15.73 -18.5 -19.03 -18.5 -23.8L-18.5 -63.96L-29.66 -63.96L-29.66 -28.17C-29.66 -19.68 -29.38 -13.59 -28.82 -9.9C-28.26 -6.21 -26.87 -3.52 -24.64 -1.81C-22.4 -0.11 -18.69 0.74 -13.48 0.74C-8.27 0.74 -4.56 -0.11 -2.32 -1.81C-0.09 -3.52 1.3 -6.21 1.86 -9.9C2.42 -13.59 2.7 -19.68 2.7 -28.17Z M15.9 0.33C18.44 0.6 20.79 0.74 22.96 0.74C26.68 0.74 29.64 0.22 31.84 -0.84C34.04 -1.89 35.71 -3.9 36.86 -6.88C38.01 -9.85 38.58 -14.16 38.58 -19.8C38.58 -24.39 38.24 -27.8 37.56 -30.03C36.81 -32.32 35.81 -33.93 34.54 -34.86C33.27 -35.79 31.67 -36.44 29.75 -36.81L23.33 -38.3C22.22 -38.55 21.41 -38.89 20.92 -39.32C20.42 -39.76 20.1 -40.45 19.94 -41.42C19.79 -42.38 19.71 -43.94 19.71 -46.11C19.71 -47.97 19.79 -49.39 19.94 -50.39C20.1 -51.38 20.42 -52.18 20.92 -52.8C21.41 -53.42 22.2 -53.87 23.29 -54.15C24.37 -54.43 25.91 -54.57 27.89 -54.57C29.75 -54.57 31.5 -54.49 33.14 -54.34C34.78 -54.18 35.91 -54.04 36.53 -53.92L36.53 -63.22C35.91 -63.46 34.47 -63.77 32.21 -64.14C29.95 -64.52 27.42 -64.7 24.64 -64.7C20.98 -64.7 17.99 -64.18 15.66 -63.12C13.34 -62.07 11.56 -60.16 10.32 -57.41C9.08 -54.65 8.46 -50.76 8.46 -45.74C8.46 -40.53 8.89 -36.57 9.76 -33.84C10.63 -31.11 12.24 -29.5 14.6 -29L22.03 -27.42C23.83 -27.05 25.07 -26.6 25.75 -26.08C26.43 -25.55 26.88 -24.73 27.1 -23.61C27.32 -22.5 27.42 -20.58 27.42 -17.85C27.42 -14.32 26.99 -12.02 26.12 -10.97C25.57 -10.35 24.82 -9.93 23.89 -9.71C22.96 -9.5 21.63 -9.39 19.89 -9.39C17.42 -9.39 13.91 -9.61 9.39 -10.04L9.39 -0.84C11.19 -0.34 13.36 0.05 15.9 0.33Z M44.72 0L55.87 0L55.87 -63.96L44.72 -63.96Z M84.09 0.33C85.73 0.05 87.08 -0.31 88.13 -0.74L88.13 -10.04C86.08 -9.61 83.88 -9.39 81.53 -9.39C79.11 -9.39 77.42 -9.84 76.46 -10.74C75.5 -11.64 74.88 -13.54 74.6 -16.45C74.32 -19.37 74.19 -24.54 74.19 -31.98C74.19 -39.42 74.32 -44.59 74.6 -47.5C74.88 -50.42 75.5 -52.32 76.46 -53.22C77.42 -54.12 79.11 -54.57 81.53 -54.57C83.39 -54.57 85.53 -54.35 87.94 -53.92L87.94 -63.31C87.14 -63.74 85.94 -64.08 84.36 -64.33C82.78 -64.58 81.16 -64.7 79.48 -64.7C74.65 -64.7 71.09 -63.76 68.79 -61.87C66.5 -59.98 64.97 -56.79 64.19 -52.29C63.42 -47.8 63.03 -41.03 63.03 -31.98C63.03 -22.81 63.4 -16.01 64.14 -11.57C64.89 -7.14 66.41 -3.98 68.7 -2.09C70.99 -0.2 74.59 0.74 79.48 0.74C80.91 0.74 82.44 0.6 84.09 0.33Z"></path></g><g id="SvgjsG1040" class="text" transform="translate(395.5726507944173, 94.80908485053365) scale(1)" light-content="false" fill="#707070"><path d="M-35.93 0L-32.58 0L-32.58 -63.96L-35.93 -63.96L-35.93 -33.93L-57.5 -33.93L-57.5 -63.96L-60.84 -63.96L-60.84 0L-57.5 0L-57.5 -30.77L-35.93 -30.77Z M5.44 0L8.88 0L-6 -63.96L-9.81 -63.96L-24.68 0L-21.34 0L-16.78 -20.17L0.79 -20.17ZM-7.76 -57.36L0.05 -23.33L-16.04 -23.33L-8.23 -57.36Z M16.78 0L38.35 0L38.35 -3.16L20.22 -3.16L20.22 -63.96L16.78 -63.96Z M44.86 0L66.42 0L66.42 -3.16L48.29 -3.16L48.29 -63.96L44.86 -63.96Z"></path></g></g></g></svg>