<svg width="351" height="238" viewBox="0 0 351 238" fill="none" xmlns="http://www.w3.org/2000/svg">
<mask id="path-1-outside-1_55_686" maskUnits="userSpaceOnUse" x="0.167969" y="2.85278" width="163" height="161" fill="black">
<rect fill="white" x="0.167969" y="2.85278" width="163" height="161"/>
<path fill-rule="evenodd" clip-rule="evenodd" d="M57.8723 6.22785C25.5903 16.3414 2.16797 46.488 2.16797 82.1052C2.16797 126.012 37.7612 161.605 81.6677 161.605C125.574 161.605 161.167 126.012 161.167 82.1052C161.167 46.0363 137.147 15.5776 104.231 5.85278V36.2203C120.654 44.4892 131.92 61.4995 131.92 81.1412C131.92 108.901 109.417 131.404 81.6575 131.404C53.8981 131.404 31.3947 108.901 31.3947 81.1412C31.3947 61.9865 42.1094 45.3343 57.8723 36.8513V6.22785Z"/>
</mask>
<path fill-rule="evenodd" clip-rule="evenodd" d="M57.8723 6.22785C25.5903 16.3414 2.16797 46.488 2.16797 82.1052C2.16797 126.012 37.7612 161.605 81.6677 161.605C125.574 161.605 161.167 126.012 161.167 82.1052C161.167 46.0363 137.147 15.5776 104.231 5.85278V36.2203C120.654 44.4892 131.92 61.4995 131.92 81.1412C131.92 108.901 109.417 131.404 81.6575 131.404C53.8981 131.404 31.3947 108.901 31.3947 81.1412C31.3947 61.9865 42.1094 45.3343 57.8723 36.8513V6.22785Z" fill="#3FA16F"/>
<path d="M57.8723 6.22785H59.6415V3.8196L57.3434 4.53956L57.8723 6.22785ZM104.231 5.85278L104.732 4.15609L102.462 3.4853V5.85278L104.231 5.85278ZM104.231 36.2203H102.462V37.3103L103.435 37.8005L104.231 36.2203ZM57.8723 36.8513L58.7107 38.4092L59.6415 37.9083V36.8513H57.8723ZM3.93716 82.1052C3.93716 47.2833 26.836 17.8051 58.4012 7.91613L57.3434 4.53956C24.3445 14.8777 0.398774 45.6927 0.398774 82.1052H3.93716ZM81.6677 159.836C38.7383 159.836 3.93716 125.035 3.93716 82.1052H0.398774C0.398774 126.989 36.7841 163.374 81.6677 163.374V159.836ZM159.398 82.1052C159.398 125.035 124.597 159.836 81.6677 159.836V163.374C126.551 163.374 162.937 126.989 162.937 82.1052H159.398ZM103.729 7.54948C135.915 17.0583 159.398 46.8416 159.398 82.1052H162.937C162.937 45.231 138.38 14.097 104.732 4.15609L103.729 7.54948ZM102.462 5.85278V36.2203H106V5.85278L102.462 5.85278ZM103.435 37.8005C119.284 45.7806 130.151 62.1934 130.151 81.1412H133.689C133.689 60.8056 122.023 43.1979 105.026 34.6401L103.435 37.8005ZM130.151 81.1412C130.151 107.923 108.44 129.635 81.6575 129.635V133.173C110.394 133.173 133.689 109.878 133.689 81.1412H130.151ZM81.6575 129.635C54.8752 129.635 33.1639 107.923 33.1639 81.1412H29.6255C29.6255 109.878 52.921 133.173 81.6575 133.173V129.635ZM33.1639 81.1412C33.1639 62.6631 43.4982 46.596 58.7107 38.4092L57.0339 35.2934C40.7207 44.0725 29.6255 61.3098 29.6255 81.1412H33.1639ZM59.6415 36.8513V6.22785H56.1031V36.8513H59.6415Z" fill="#3FA16F" mask="url(#path-1-outside-1_55_686)"/>
<path fill-rule="evenodd" clip-rule="evenodd" d="M94.094 1.50396C90.0619 0.769413 85.9073 0.385742 81.6632 0.385742C77.0355 0.385742 72.5144 0.841886 68.1423 1.71167V43.4056C52.943 48.9259 42.0859 63.4966 42.0859 80.6032C42.0859 102.453 59.799 120.166 81.6491 120.166C103.499 120.166 121.212 102.453 121.212 80.6032C121.212 63.1009 109.847 48.253 94.094 43.0371V1.50396Z" fill="#3FA16F"/>
<path d="M321.403 134.444L309.323 136.76V3.72461L345.564 3.72461V161.599L298.431 161.599L207.926 28.5635L220.007 26.248V161.599H183.766V3.72461L232.285 3.72461L321.403 134.444Z" fill="#3FA16F"/>
<path d="M350.443 218.962C349.841 222.626 348.338 225.853 345.931 228.642C343.579 231.431 340.572 233.619 336.907 235.205C333.243 236.791 329.196 237.584 324.766 237.584C319.625 237.584 315.086 236.572 311.148 234.549C307.211 232.471 304.121 229.627 301.879 226.017C299.691 222.353 298.597 218.142 298.597 213.384C298.597 208.626 299.691 204.442 301.879 200.833C304.121 197.168 307.211 194.324 311.148 192.301C315.086 190.277 319.625 189.266 324.766 189.266C329.196 189.266 333.243 190.059 336.907 191.645C340.572 193.176 343.579 195.336 345.931 198.125C348.338 200.915 349.841 204.169 350.443 207.887H342.65C341.829 204.059 339.779 201.051 336.497 198.864C333.27 196.621 329.36 195.5 324.766 195.5C321.047 195.5 317.793 196.239 315.004 197.715C312.27 199.192 310.137 201.27 308.605 203.95C307.074 206.575 306.308 209.72 306.308 213.384C306.308 217.048 307.074 220.22 308.605 222.9C310.137 225.58 312.27 227.658 315.004 229.134C317.793 230.556 321.047 231.267 324.766 231.267C329.415 231.267 333.353 230.146 336.579 227.904C339.861 225.662 341.884 222.681 342.65 218.962H350.443Z" fill="#3FA16F"/>
<path d="M261.892 190.166L265.666 190.822L269.439 190.166V236.515H261.892V190.166Z" fill="#3FA16F"/>
<path d="M233.061 222.978C233.061 225.932 232.158 228.502 230.353 230.69C228.603 232.877 226.006 234.573 222.56 235.776C219.169 236.979 215.04 237.581 210.173 237.581C205.196 237.581 200.794 236.897 196.965 235.53C193.192 234.108 190.239 232.139 188.106 229.623C185.973 227.108 184.824 224.182 184.66 220.846H192.371C192.7 222.978 193.657 224.865 195.243 226.506C196.829 228.092 198.907 229.322 201.477 230.197C204.048 231.073 206.974 231.51 210.255 231.51C215.013 231.51 218.732 230.799 221.412 229.377C224.146 227.901 225.513 225.904 225.513 223.389C225.513 221.42 224.638 219.971 222.888 219.041C221.138 218.056 217.884 217.318 213.126 216.826L204.184 215.923C199.755 215.486 196.2 214.693 193.52 213.544C190.895 212.341 189.008 210.865 187.86 209.115C186.711 207.31 186.137 205.314 186.137 203.126C186.137 200.118 187.039 197.602 188.844 195.579C190.703 193.501 193.274 191.942 196.555 190.903C199.837 189.809 203.638 189.262 207.958 189.262C212.552 189.262 216.626 189.918 220.181 191.231C223.791 192.544 226.662 194.376 228.795 196.727C230.928 199.079 232.104 201.786 232.322 204.849H224.693C224.42 203.099 223.599 201.513 222.232 200.091C220.865 198.614 218.951 197.438 216.49 196.563C214.083 195.688 211.103 195.251 207.548 195.251C203.173 195.251 199.755 195.88 197.293 197.138C194.887 198.395 193.684 200.228 193.684 202.634C193.684 204.384 194.477 205.779 196.063 206.818C197.649 207.857 200.466 208.595 204.513 209.033L214.685 210.099C219.333 210.537 222.998 211.302 225.677 212.396C228.357 213.49 230.244 214.912 231.338 216.662C232.486 218.412 233.061 220.517 233.061 222.978Z" fill="#3FA16F"/>
<path d="M133.977 237.579C129.766 237.579 126.184 236.731 123.231 235.036C120.332 233.286 118.09 230.77 116.504 227.489C114.973 224.207 114.207 220.27 114.207 215.676V190.327H121.754V214.445C121.754 219.914 122.985 224.07 125.446 226.914C127.907 229.704 131.489 231.098 136.192 231.098C139.528 231.098 142.427 230.36 144.888 228.883C147.349 227.352 149.263 225.219 150.63 222.484C151.998 219.75 152.681 216.578 152.681 212.968L155.635 214.691C155.306 219.34 154.158 223.387 152.189 226.832C150.275 230.278 147.759 232.93 144.642 234.79C141.525 236.649 137.97 237.579 133.977 237.579ZM155.224 236.512L152.681 220.762V190.327H160.228V221.91L162.772 236.512H155.224Z" fill="#3FA16F"/>
<path d="M7.66748 190.329H15.2147L17.8398 205.997V236.514H10.2926L10.2926 204.931L7.66748 190.329ZM35.4772 189.262C39.4696 189.262 42.8603 190.137 45.6495 191.887C48.4387 193.583 50.5716 196.071 52.0482 199.352C53.5248 202.579 54.2632 206.489 54.2632 211.083V236.514H46.716V212.396C46.716 206.872 45.5675 202.716 43.2705 199.927C40.9735 197.083 37.6375 195.661 33.2623 195.661C30.145 195.661 27.4105 196.427 25.0588 197.958C22.7619 199.489 20.9844 201.622 19.7266 204.357C18.4687 207.036 17.8398 210.181 17.8398 213.791L14.8045 211.658C15.1873 207.064 16.2811 203.099 18.0859 199.763C19.9453 196.427 22.3517 193.856 25.3049 192.051C28.3129 190.192 31.7036 189.262 35.4772 189.262ZM71.8186 189.262C75.8109 189.262 79.2017 190.137 81.9909 191.887C84.8347 193.583 86.995 196.071 88.4716 199.352C89.9482 202.579 90.6865 206.489 90.6865 211.083V236.514H83.1393V212.396C83.1393 206.872 81.9909 202.716 79.6939 199.927C77.3969 197.083 74.0608 195.661 69.6857 195.661C66.5683 195.661 63.8339 196.427 61.4822 197.958C59.1852 199.489 57.4078 201.622 56.1499 204.357C54.8921 207.036 54.2632 210.181 54.2632 213.791L51.2279 211.658C51.6107 207.064 52.7045 203.099 54.5093 199.763C56.3687 196.427 58.7751 193.856 61.7283 192.051C64.7362 190.192 68.0997 189.262 71.8186 189.262Z" fill="#3FA16F"/>
</svg>
