<svg width="314" height="42" viewBox="0 0 314 42" fill="none" xmlns="http://www.w3.org/2000/svg">
<g clip-path="url(#clip0_277_278)">
<path d="M288.658 37.6601V23.7228L290.464 28.4985L275.43 3.54785H283.825L295.345 22.6994H290.513L302.081 3.54785H309.842L294.808 28.4985L296.565 23.7228V37.6601H288.658Z" fill="white"/>
<path fill-rule="evenodd" clip-rule="evenodd" d="M287.725 38.5924V25.7605L273.779 2.61597H284.352L292.935 16.8857L301.555 2.61597H311.492L297.497 25.8415V38.5924H287.725ZM296.565 25.5824L309.842 3.54803H302.081L292.933 18.6912L283.825 3.54803H275.429L288.657 25.5014V37.6603H296.565V25.5824Z" fill="white"/>
<path d="M258.659 37.6599C256.048 37.6599 253.641 37.2516 251.438 36.4349C249.267 35.5868 247.364 34.3932 245.728 32.8541C244.123 31.3149 242.865 29.5088 241.952 27.4357C241.071 25.3626 240.631 23.0853 240.631 20.6039C240.631 18.1224 241.071 15.8452 241.952 13.772C242.865 11.6989 244.139 9.89282 245.775 8.35369C247.411 6.81457 249.33 5.63666 251.533 4.81998C253.735 3.97189 256.158 3.54785 258.801 3.54785C261.727 3.54785 264.479 3.84625 266.807 4.81998C269.167 5.79372 271.773 7.54143 273.378 9.39467L267.72 13.772C266.525 12.5156 265.219 11.589 263.803 10.9922C262.387 10.364 260.846 10.0499 259.178 10.0499C257.574 10.0499 256.111 10.3012 254.789 10.8037C253.468 11.3063 252.319 12.0287 251.344 12.9711C250.4 13.9134 249.661 15.0285 249.126 16.3163C248.622 17.6042 248.371 19.0333 248.371 20.6039C248.371 22.143 248.622 23.5565 249.126 24.8443C249.661 26.1322 250.4 27.263 251.344 28.2367C252.319 29.179 253.452 29.9015 254.742 30.404C256.063 30.9066 257.511 31.1579 259.084 31.1579C260.594 31.1579 262.057 30.9223 263.473 30.4511C264.92 29.9486 266.32 29.1162 267.673 27.954L273.784 32.4771C271.99 33.8278 268.129 35.8538 265.738 36.5762C263.378 37.2987 261.019 37.6599 258.659 37.6599ZM267.597 32.4771V20.4995H273.784V32.4771H267.597Z" fill="white"/>
<path fill-rule="evenodd" clip-rule="evenodd" d="M251.116 37.2772L251.109 37.2743C248.835 36.3859 246.832 35.1315 245.109 33.5105L245.103 33.5045C243.411 31.8821 242.085 29.9778 241.126 27.7988L241.122 27.7882C240.189 25.5928 239.729 23.1941 239.729 20.6039C239.729 18.0137 240.189 15.6151 241.122 13.4196L241.126 13.409C242.087 11.2262 243.431 9.32008 245.156 7.69737C246.883 6.07316 248.905 4.83359 251.213 3.97704C253.529 3.08603 256.061 2.64673 258.799 2.64673C261.77 2.64673 264.662 2.94691 267.152 3.98784C269.616 5.00502 272.346 6.82714 274.058 8.80483L274.681 9.52473L267.627 14.9827L267.066 14.3933C265.945 13.2151 264.74 12.3655 263.452 11.8226L263.444 11.8194L263.436 11.816C262.144 11.2426 260.728 10.9511 259.177 10.9511C257.667 10.9511 256.315 11.1873 255.108 11.6461C253.898 12.1062 252.857 12.7626 251.974 13.6141C251.122 14.4658 250.451 15.4758 249.96 16.6532C249.505 17.8211 249.271 19.1342 249.271 20.6039C249.271 22.0399 249.505 23.3377 249.96 24.5075C250.451 25.6853 251.124 26.7134 251.98 27.5989C252.864 28.4505 253.89 29.1048 255.064 29.563C256.272 30.0217 257.608 30.2568 259.083 30.2568C260.495 30.2568 261.86 30.037 263.181 29.598C264.37 29.1846 265.541 28.5222 266.694 27.5949V19.5984H274.684V32.9266L274.325 33.197C272.453 34.6069 268.499 36.6827 266 37.4383C263.559 38.1855 261.111 38.5611 258.658 38.5611C255.951 38.5611 253.437 38.1377 251.124 37.2799L251.116 37.2772ZM265.737 36.5763C267.637 36.0023 270.464 34.6055 272.445 33.3783C272.64 33.2576 272.827 33.1385 273.004 33.0221C273.292 32.8322 273.554 32.6492 273.782 32.4772V20.4995H267.596V28.0191C267.298 28.2722 266.997 28.5092 266.694 28.7303C265.648 29.495 264.573 30.0686 263.472 30.4512C262.056 30.9223 260.593 31.1579 259.083 31.1579C257.509 31.1579 256.062 30.9066 254.741 30.4041C253.451 29.9015 252.318 29.1791 251.343 28.2367C250.399 27.263 249.659 26.1322 249.125 24.8444C248.621 23.5565 248.37 22.143 248.37 20.6039C248.37 19.0334 248.621 17.6042 249.125 16.3164C249.659 15.0285 250.399 13.9134 251.343 12.9711C252.318 12.0288 253.466 11.3063 254.788 10.8038C256.109 10.3012 257.572 10.0499 259.177 10.0499C260.844 10.0499 262.386 10.364 263.802 10.9922C265.218 11.589 266.523 12.5157 267.719 13.7721L273.377 9.39471C273.184 9.17247 272.978 8.95175 272.758 8.7337C271.151 7.13344 268.883 5.67699 266.806 4.82002C264.478 3.84629 261.725 3.54789 258.799 3.54789C256.157 3.54789 253.734 3.97193 251.532 4.82002C249.329 5.6367 247.41 6.81461 245.774 8.35373C244.138 9.89286 242.864 11.699 241.951 13.7721C241.07 15.8452 240.63 18.1225 240.63 20.6039C240.63 23.0854 241.07 25.3626 241.951 27.4358C242.864 29.5089 244.122 31.315 245.727 32.8541C247.363 34.3932 249.266 35.5868 251.437 36.4349C253.64 37.2516 256.046 37.66 258.658 37.66C261.018 37.66 263.377 37.2987 265.737 36.5763Z" fill="white"/>
<path d="M206.635 37.6899V3.54761H221.673C224.783 3.54761 227.463 4.05161 229.713 5.05963C231.963 6.03512 233.7 7.44959 234.925 9.30303C236.149 11.1565 236.761 13.3676 236.761 15.9364C236.761 18.4727 236.149 20.6675 234.925 22.521C233.7 24.3419 231.963 25.7401 229.713 26.7156C227.463 27.6911 224.783 28.1789 221.673 28.1789H211.102L214.675 24.7159V37.6899H206.635ZM228.721 37.6899L220.035 25.3012H228.621L236.055 37.6899H228.721ZM214.675 25.5938L211.102 21.8869H221.226C223.708 21.8869 225.561 21.3667 226.785 20.3261C228.009 19.2531 228.621 17.7898 228.621 15.9364C228.621 14.0504 228.009 12.5872 226.785 11.5467C225.561 10.5061 223.708 9.98588 221.226 9.98588H211.102L214.675 6.23022V25.5938Z" fill="white"/>
<path fill-rule="evenodd" clip-rule="evenodd" d="M205.703 38.6209V2.61646H221.673C224.878 2.61646 227.693 3.13537 230.088 4.20756C232.484 5.2471 234.368 6.7716 235.701 8.78979C237.041 10.8182 237.692 13.2143 237.692 15.9363C237.692 18.6284 237.04 21.0076 235.701 23.0341L235.697 23.0404C234.508 24.8081 232.884 26.1957 230.853 27.2111L237.699 38.6209H228.236L221.568 29.1098H215.606V38.6209H205.703ZM214.674 28.1788H221.673C221.799 28.1788 221.925 28.178 222.05 28.1763L228.72 37.6899H236.055L229.519 26.7979C229.584 26.7708 229.649 26.7434 229.713 26.7155C229.938 26.618 230.158 26.5162 230.372 26.4102C232.305 25.4562 233.822 24.1598 234.924 22.5209C236.148 20.6675 236.76 18.4726 236.76 15.9363C236.76 13.3675 236.148 11.1564 234.924 9.30294C233.7 7.4495 231.963 6.03503 229.713 5.05954C227.463 4.05153 224.783 3.54752 221.673 3.54752H206.634V37.6899H214.674V28.1788ZM221.226 21.8868C223.707 21.8868 225.56 21.3666 226.785 20.326C228.009 19.253 228.621 17.7898 228.621 15.9363C228.621 14.0504 228.009 12.5871 226.785 11.5466C225.56 10.5061 223.707 9.98579 221.226 9.98579H214.674V21.8868H221.226ZM215.606 20.9558H221.226C223.597 20.9558 225.19 20.4559 226.176 19.6212C227.166 18.7508 227.69 17.5599 227.69 15.9363C227.69 14.271 227.161 13.0882 226.182 12.256C225.196 11.4186 223.601 10.9169 221.226 10.9169H215.606V20.9558Z" fill="white"/>
<path d="M46.6523 37.6741V3.56079H53.3531L74.0053 28.1224H70.755V3.56079H78.7559V37.6741H72.1051L51.4029 13.1125H54.6532V37.6741H46.6523Z" fill="white"/>
<path fill-rule="evenodd" clip-rule="evenodd" d="M45.709 38.6167V2.61816H53.7913L69.8116 21.671V2.61816H79.6978V38.6167H71.6661L55.5951 19.5498V38.6167H45.709ZM54.6525 16.9688L72.1044 37.6741H78.7551V3.5608H70.7543V24.2567L53.3524 3.5608H46.6516V37.6741H54.6525V16.9688Z" fill="white"/>
<path d="M108.787 16.6883H129.926L128.524 23.6083H107.385L108.787 16.6883ZM106.264 31.6611H127.682L126.112 38.6367H95.7227L103.572 2.60962H133.685L131.437 9.68576H110.859L106.264 31.6611Z" fill="#69B897"/>
<path d="M106.264 31.6536L104.679 38.6367H83.7031V2.60962H112.414L110.859 9.68359H93.6906V16.694H109.391L107.939 23.611H93.7414L93.6683 31.6536H106.264Z" fill="white"/>
<path d="M37.8684 5.63078C40.3654 8.51914 41.9777 12.0681 42.5129 15.8543C43.0482 19.6405 42.4838 23.5041 40.8871 26.9845C39.2904 30.4648 36.7287 33.4149 33.5077 35.4829C30.2867 37.5509 26.5422 38.6495 22.7209 38.6477C18.8996 38.6459 15.1627 37.5437 11.956 35.4727C8.74926 33.4017 6.20802 30.4492 4.63537 26.9673C3.06271 23.4855 2.52502 19.6213 3.08642 15.8356C3.64782 12.0499 5.28462 8.50255 7.80159 5.61656L14.755 11.6892C13.4057 13.2363 12.5282 15.138 12.2273 17.1674C11.9263 19.1968 12.2146 21.2683 13.0576 23.1349C13.9007 25.0014 15.263 26.5842 16.982 27.6944C18.7011 28.8046 20.7043 29.3954 22.7529 29.3964C24.8014 29.3974 26.8087 28.8084 28.5354 27.6998C30.2621 26.5912 31.6354 25.0098 32.4913 23.144C33.3473 21.2783 33.6498 19.2071 33.3629 17.1774C33.076 15.1477 32.2117 13.2452 30.8731 11.6968L37.8684 5.63078Z" fill="white"/>
<path fill-rule="evenodd" clip-rule="evenodd" d="M18.7207 3.03878V18.7672H26.7422V3.005C26.4157 2.94041 26.0854 2.88374 25.752 2.8352C23.4092 2.49417 20.9985 2.56751 18.7207 3.03878Z" fill="#69B897"/>
<path d="M136.652 37.687V3.57373H143.353L164.005 28.1353H160.755V3.57373H168.756V37.687H162.105L141.403 13.1255H144.653V37.687H136.652Z" fill="white"/>
<path fill-rule="evenodd" clip-rule="evenodd" d="M135.709 38.6297V2.6311H143.791L159.812 21.6839V2.6311H169.698V38.6297H161.666L145.595 19.5627V38.6297H135.709ZM144.652 16.9817L162.104 37.687H168.755V3.57374H160.754V24.2697L143.352 3.57374H136.652V37.687H144.652V16.9817Z" fill="white"/>
<path d="M201.725 31.6619V38.6489H173.707V2.64917H201.732V9.63721H183.695V16.6163H201.725V23.6526H183.745L183.672 31.6619H201.725Z" fill="white"/>
</g>
<defs>
<clipPath id="clip0_277_278">
<rect width="314" height="42" fill="white"/>
</clipPath>
</defs>
</svg>
